<svg id="Capa_1" enable-background="new 0 0 510 510" height="512" viewBox="0 0 510 510" width="512" xmlns="http://www.w3.org/2000/svg" xmlns:xlink="http://www.w3.org/1999/xlink"><linearGradient id="lg1"><stop offset="0" stop-color="#b5adb6"/><stop offset=".5106" stop-color="#918291"/><stop offset="1" stop-color="#554e56"/></linearGradient><linearGradient id="SVGID_1_" gradientUnits="userSpaceOnUse" x1="88" x2="512.848" xlink:href="#lg1" y1="122.5" y2="122.5"/><linearGradient id="SVGID_2_" gradientUnits="userSpaceOnUse" x1="24" x2="438.174" xlink:href="#lg1" y1="122.5" y2="122.5"/><linearGradient id="SVGID_3_" gradientUnits="userSpaceOnUse" x1="5" x2="279.711" xlink:href="#lg1" y1="149.549" y2="149.549"/><linearGradient id="lg2"><stop offset="0" stop-color="#fff3be"/><stop offset=".5725" stop-color="#ffd15b"/><stop offset="1" stop-color="#eca026"/></linearGradient><linearGradient id="SVGID_4_" gradientUnits="userSpaceOnUse" x1="41.586" x2="498.001" xlink:href="#lg2" y1="354.992" y2="354.992"/><linearGradient id="SVGID_5_" gradientUnits="userSpaceOnUse" x1="86" x2="425.912" xlink:href="#lg2" y1="354.992" y2="354.992"/><linearGradient id="lg3"><stop offset="0" stop-color="#f8f6f7"/><stop offset=".1788" stop-color="#f8f6f7"/><stop offset="1" stop-color="#e7e6f5"/></linearGradient><linearGradient id="SVGID_6_" gradientUnits="userSpaceOnUse" x1="428.421" x2="494.738" xlink:href="#lg3" y1="300.225" y2="300.225"/><linearGradient id="SVGID_7_" gradientUnits="userSpaceOnUse" x1="428.421" x2="494.738" xlink:href="#lg3" y1="354.992" y2="354.992"/><linearGradient id="SVGID_8_" gradientUnits="userSpaceOnUse" x1="428.421" x2="494.738" xlink:href="#lg3" y1="409.76" y2="409.76"/><linearGradient id="SVGID_9_" gradientUnits="userSpaceOnUse" x1="10" x2="67.009" xlink:href="#lg3" y1="300.225" y2="300.225"/><linearGradient id="SVGID_10_" gradientUnits="userSpaceOnUse" x1="10" x2="67.009" xlink:href="#lg3" y1="354.992" y2="354.992"/><linearGradient id="SVGID_11_" gradientUnits="userSpaceOnUse" x1="10" x2="67.009" xlink:href="#lg3" y1="409.76" y2="409.76"/><linearGradient id="lg4"><stop offset="0" stop-color="#fe93bb"/><stop offset=".5595" stop-color="#925cb4"/><stop offset="1" stop-color="#5b3374"/></linearGradient><linearGradient id="SVGID_12_" gradientUnits="userSpaceOnUse" x1="147" x2="367.581" xlink:href="#lg4" y1="354.992" y2="354.992"/><linearGradient id="SVGID_13_" gradientUnits="userSpaceOnUse" x1="2" x2="318.623" xlink:href="#lg2" y1="354.992" y2="354.992"/><linearGradient id="SVGID_15_" gradientUnits="userSpaceOnUse" x1="129.333" x2="328.189" xlink:href="#lg4" y1="354.991" y2="354.991"/><g><path d="m255 0c-101.43 0-183.703 81.983-184.192 183.298v61.702h54.098v-61.702c.488-71.437 58.542-129.2 130.094-129.2s129.605 57.762 130.094 129.199v61.703h54.098v-61.702c-.489-101.315-82.762-183.298-184.192-183.298z" fill="url(#SVGID_1_)"/><path d="m255 0c-4.179 0-8.322.153-12.432.427 95.635 6.376 171.292 85.731 171.76 182.871v61.702h24.864v-61.702c-.489-101.315-82.762-183.298-184.192-183.298z" fill="url(#SVGID_2_)"/><path d="m242.568 54.693c-4.093-.388-8.238-.594-12.432-.594-71.552 0-129.606 57.762-130.094 129.199v61.702h24.864v-61.702c.459-67.25 51.936-122.373 117.662-128.605z" fill="url(#SVGID_3_)"/><path d="m432.038 510h-354.076c-20.09 0-36.376-16.286-36.376-36.376v-237.264c0-20.09 16.286-36.376 36.376-36.376h354.077c20.09 0 36.376 16.286 36.376 36.376v237.264c-.001 20.09-16.287 36.376-36.377 36.376z" fill="url(#SVGID_4_)"/><path d="m432.038 199.984h-40.432c20.09 0 36.376 16.286 36.376 36.376v42.323h-9.413c-8.108 0-14.681 6.573-14.681 14.681v13.721c0 8.108 6.573 14.681 14.681 14.681 5.199 0 9.413 4.214 9.413 9.413v2.27h-9.413c-8.108 0-14.681 6.573-14.681 14.681v13.721c0 8.108 6.573 14.681 14.681 14.681 5.199 0 9.413 4.214 9.413 9.413v2.27h-9.413c-8.108 0-14.681 6.573-14.681 14.681v13.721c0 8.108 6.573 14.681 14.681 14.681 5.199 0 9.413 4.214 9.413 9.413v32.91c0 20.09-16.286 36.375-36.376 36.375h40.432c20.09 0 36.375-16.286 36.375-36.375v-237.261c.001-20.09-16.285-36.376-36.375-36.376z" fill="url(#SVGID_5_)"/><g><path d="m475.758 321.767h-32.656c-8.108 0-14.681-6.573-14.681-14.681v-13.722c0-8.108 6.573-14.681 14.681-14.681h32.656c8.108 0 14.681 6.573 14.681 14.681v13.722c0 8.108-6.573 14.681-14.681 14.681z" fill="url(#SVGID_6_)"/><path d="m475.758 376.534h-32.656c-8.108 0-14.681-6.573-14.681-14.681v-13.722c0-8.108 6.573-14.681 14.681-14.681h32.656c8.108 0 14.681 6.573 14.681 14.681v13.722c0 8.108-6.573 14.681-14.681 14.681z" fill="url(#SVGID_7_)"/><path d="m475.758 431.301h-32.656c-8.108 0-14.681-6.573-14.681-14.681v-13.722c0-8.108 6.573-14.681 14.681-14.681h32.656c8.108 0 14.681 6.573 14.681 14.681v13.722c0 8.108-6.573 14.681-14.681 14.681z" fill="url(#SVGID_8_)"/></g><g><path d="m66.898 321.767h-32.656c-8.108 0-14.681-6.573-14.681-14.681v-13.722c0-8.108 6.573-14.681 14.681-14.681h32.656c8.108 0 14.681 6.573 14.681 14.681v13.722c0 8.108-6.573 14.681-14.681 14.681z" fill="url(#SVGID_9_)"/><path d="m66.898 376.534h-32.656c-8.108 0-14.681-6.573-14.681-14.681v-13.722c0-8.108 6.573-14.681 14.681-14.681h32.656c8.108 0 14.681 6.573 14.681 14.681v13.722c0 8.108-6.573 14.681-14.681 14.681z" fill="url(#SVGID_10_)"/><path d="m66.898 431.301h-32.656c-8.108 0-14.681-6.573-14.681-14.681v-13.722c0-8.108 6.573-14.681 14.681-14.681h32.656c8.108 0 14.681 6.573 14.681 14.681v13.722c0 8.108-6.573 14.681-14.681 14.681z" fill="url(#SVGID_11_)"/></g><path d="m318.031 322.031c0-35.8-29.847-64.63-66.015-62.962-32.104 1.481-58.237 27.408-59.954 59.5-1.321 24.693 11.585 46.483 31.252 57.943 3.104 1.809 4.831 5.288 4.266 8.836l-4.498 28.232c-3.127 19.63 12.04 37.405 31.918 37.405 19.878 0 35.045-17.774 31.918-37.405l-4.499-28.239c-.561-3.521 1.124-7.002 4.207-8.794 18.776-10.913 31.405-31.235 31.405-54.516z" fill="url(#SVGID_12_)"/><path d="m293.167 322.031c0-35.8-29.847-64.63-66.015-62.962-32.104 1.481-58.237 27.408-59.954 59.5-1.321 24.693 11.585 46.483 31.252 57.943 3.104 1.809 4.831 5.288 4.266 8.836l-4.498 28.232c-3.127 19.63 12.04 37.405 31.918 37.405 19.878 0 35.045-17.774 31.918-37.405l-4.499-28.239c-.561-3.521 1.124-7.002 4.207-8.794 18.775-10.913 31.405-31.235 31.405-54.516z" fill="url(#SVGID_13_)"/><path d="m318.031 322.031c0-35.8-29.847-64.63-66.015-62.962-32.104 1.481-58.237 27.408-59.954 59.5-1.321 24.693 11.585 46.483 31.252 57.943 3.104 1.809 4.831 5.288 4.266 8.836l-4.498 28.232c-3.127 19.63 12.04 37.405 31.918 37.405 19.878 0 35.045-17.774 31.918-37.405l-4.499-28.239c-.561-3.521 1.124-7.002 4.207-8.794 18.776-10.913 31.405-31.235 31.405-54.516z" fill="url(#SVGID_12_)"/><path d="m286.63 376.55c18.77-10.92 31.4-31.24 31.4-54.52 0-35.8-29.85-64.63-66.01-62.96-3.21.15-6.35.54-9.42 1.16 28.84 5.79 50.57 31.26 50.57 61.8 0 23.28-12.63 43.6-31.41 54.52-3.08 1.79-4.77 5.27-4.21 8.79l4.5 28.24c.28 1.74.41 3.46.41 5.15 0 13.21-8.11 24.87-19.89 29.78 3.81 1.59 8 2.47 12.43 2.47 18.13 0 32.33-14.77 32.33-32.26 0-1.69-.13-3.41-.41-5.14l-4.5-28.24c-.56-3.52 1.12-7 4.21-8.79z" fill="url(#SVGID_15_)"/></g></svg>